<svg width="35" height="28" viewBox="0 0 35 28" fill="none" xmlns="http://www.w3.org/2000/svg">
<path d="M0 3C0 1.34315 1.34315 0 3 0H32C33.6569 0 35 1.34315 35 3V25C35 26.6569 33.6569 28 32 28H3C1.34315 28 0 26.6569 0 25V3Z" fill="#F00F0F" fill-opacity="0.76"/>
<path d="M20.0588 23.2486C20.0588 21.1191 19.2128 19.0768 17.707 17.571C16.2012 16.0652 14.1589 15.2192 12.0294 15.2192C9.89986 15.2192 7.85756 16.0652 6.35175 17.571C4.84595 19.0768 4 21.1191 4 23.2486H6.58589C6.58589 21.8049 7.1594 20.4203 8.18025 19.3995C9.20111 18.3786 10.5857 17.8051 12.0294 17.8051C13.4731 17.8051 14.8577 18.3786 15.8785 19.3995C16.8994 20.4203 17.4729 21.8049 17.4729 23.2486H20.0588Z" fill="#EF4446"/>
<path d="M16.4091 9.37967C16.4091 11.7985 14.4482 13.7593 12.0294 13.7593C9.61057 13.7593 7.64972 11.7985 7.64972 9.37967C7.64972 6.96084 9.61057 5 12.0294 5C14.4482 5 16.4091 6.96084 16.4091 9.37967Z" fill="#EF4446"/>
<path d="M17.1767 18.1013C18.3639 19.2885 19.0987 20.8436 19.2701 22.4986H18.1773C18.0107 21.1324 17.3922 19.8525 16.4089 18.8691C15.2473 17.7076 13.672 17.0551 12.0294 17.0551C10.3868 17.0551 8.81143 17.7076 7.64992 18.8691C6.66661 19.8525 6.04808 21.1324 5.88145 22.4986H4.78872C4.96009 20.8436 5.69487 19.2885 6.88208 18.1013C8.24723 16.7362 10.0988 15.9692 12.0294 15.9692C13.96 15.9692 15.8115 16.7362 17.1767 18.1013ZM15.6591 9.37967C15.6591 11.3843 14.034 13.0093 12.0294 13.0093C10.0248 13.0093 8.39972 11.3843 8.39972 9.37967C8.39972 7.37506 10.0248 5.75 12.0294 5.75C14.034 5.75 15.6591 7.37506 15.6591 9.37967Z" stroke="white" stroke-opacity="0.65" stroke-width="1.5"/>
<path d="M24.6059 16.1812L30.8535 10.6278C31.6221 9.96207 31.6221 8.84088 30.8732 8.15765L30.8535 8.14013C30.6712 7.97772 30.4546 7.84888 30.2162 7.76097C29.9778 7.67306 29.7222 7.62781 29.4641 7.62781C29.2059 7.62781 28.9503 7.67306 28.7119 7.76097C28.4735 7.84888 28.2569 7.97772 28.0746 8.14013L23.2066 12.4672L21.8073 11.2234C21.6248 11.0612 21.4082 10.9326 21.1698 10.8448C20.9314 10.757 20.6759 10.7118 20.4179 10.7118C20.1598 10.7118 19.9043 10.757 19.6659 10.8448C19.4275 10.9326 19.2109 11.0612 19.0284 11.2234C18.8459 11.3856 18.7012 11.5782 18.6025 11.7901C18.5037 12.002 18.4529 12.2291 18.4529 12.4585C18.4529 12.6878 18.5037 12.915 18.6025 13.1269C18.7012 13.3388 18.8459 13.5314 19.0284 13.6935L21.8073 16.1812C22.5759 16.8644 23.8373 16.8644 24.6059 16.1812Z" fill="#FDB7B8"/>
</svg>
