<svg width="35" height="28" viewBox="0 0 35 28" fill="none" xmlns="http://www.w3.org/2000/svg">
<rect width="35" height="28" rx="3" fill="#7964FC"/>
<path d="M25.8476 5.51351C25.3625 5.59243 25.0267 6.04796 25.0267 6.53944V14.2567C25.0267 14.461 25.1923 14.6267 25.3967 14.6267H26.63C26.8343 14.6267 27 14.461 27 14.2567V6.48667C27 5.88739 26.4658 5.41295 25.8476 5.51351ZM8.5 22.15C8.5 23.1699 9.32985 24 10.35 24H22.3133V22.0267H8.5V22.15Z" fill="#EAE7FF"/>
<path d="M9.98 7.84333V21.2867H22.6833C22.8868 21.2867 23.0533 21.4531 23.0533 21.6567V23.3833C23.0533 23.7239 23.3294 24 23.67 24C24.0106 24 24.2867 23.7239 24.2867 23.3833V6.48667C24.2867 6.11667 24.4001 5.77627 24.6024 5.5H12.3233C11.0291 5.5 9.98 6.54915 9.98 7.84333ZM13.9416 18.5883L12.7083 19.8216C12.565 19.9649 12.3281 19.9646 12.1851 19.8216L11.5684 19.2049C11.4239 19.0604 11.4239 18.8263 11.5684 18.6817C11.7129 18.5372 11.9471 18.5372 12.0916 18.6817L12.4467 19.0368L13.4184 18.0651C13.5629 17.9205 13.7971 17.9205 13.9416 18.0651C14.0861 18.2096 14.0861 18.4437 13.9416 18.5883ZM13.9416 15.3816C13.9416 15.3816 12.7199 16.6033 12.7084 16.6148C12.5649 16.7583 12.3258 16.7557 12.1851 16.6149L11.5684 15.9983C11.4239 15.8537 11.4239 15.6196 11.5684 15.4751C11.7129 15.3305 11.9471 15.3305 12.0916 15.4751L12.4467 15.8301L13.4184 14.8584C13.5629 14.7139 13.7971 14.7139 13.9416 14.8584C14.0861 15.0029 14.0861 15.2371 13.9416 15.3816ZM13.9416 12.1749L12.7083 13.4083C12.565 13.5515 12.3279 13.5511 12.1851 13.4083L11.5684 12.7916C11.4239 12.6471 11.4239 12.4129 11.5684 12.2684C11.7129 12.1239 11.9471 12.1239 12.0916 12.2684L12.4467 12.6235L13.4184 11.6517C13.5629 11.5072 13.7971 11.5072 13.9416 11.6517C14.0861 11.7963 14.0861 12.0304 13.9416 12.1749ZM11.9533 9.94C11.9533 9.73573 12.1191 9.57 12.3233 9.57H15.2833C15.4876 9.57 15.6533 9.73573 15.6533 9.94C15.6533 10.1443 15.4876 10.31 15.2833 10.31H12.3233C12.1191 10.31 11.9533 10.1443 11.9533 9.94ZM20.2167 20.1767H15.2833C15.0791 20.1767 14.9133 20.0109 14.9133 19.8067C14.9133 19.6024 15.0791 19.4367 15.2833 19.4367H20.2167C20.4209 19.4367 20.5867 19.6024 20.5867 19.8067C20.5867 20.0109 20.4209 20.1767 20.2167 20.1767ZM21.6967 18.6967H15.2833C15.0791 18.6967 14.9133 18.5309 14.9133 18.3267C14.9133 18.1224 15.0791 17.9567 15.2833 17.9567H21.6967C21.9009 17.9567 22.0667 18.1224 22.0667 18.3267C22.0667 18.5309 21.9009 18.6967 21.6967 18.6967ZM14.9133 16.6C14.9133 16.3957 15.0791 16.23 15.2833 16.23H20.2167C20.4209 16.23 20.5867 16.3957 20.5867 16.6C20.5867 16.8043 20.4209 16.97 20.2167 16.97H15.2833C15.0791 16.97 14.9133 16.8043 14.9133 16.6ZM21.6967 15.49H15.2833C15.0791 15.49 14.9133 15.3243 14.9133 15.12C14.9133 14.9157 15.0791 14.75 15.2833 14.75H21.6967C21.9009 14.75 22.0667 14.9157 22.0667 15.12C22.0667 15.3243 21.9009 15.49 21.6967 15.49ZM14.9133 13.3933C14.9133 13.1891 15.0791 13.0233 15.2833 13.0233H20.2167C20.4209 13.0233 20.5867 13.1891 20.5867 13.3933C20.5867 13.5976 20.4209 13.7633 20.2167 13.7633H15.2833C15.0791 13.7633 14.9133 13.5976 14.9133 13.3933ZM21.6967 12.2833H15.2833C15.0791 12.2833 14.9133 12.1176 14.9133 11.9133C14.9133 11.7091 15.0791 11.5433 15.2833 11.5433H21.6967C21.9009 11.5433 22.0667 11.7091 22.0667 11.9133C22.0667 12.1176 21.9009 12.2833 21.6967 12.2833ZM21.6967 7.35H22.0667V6.98C22.0667 6.77573 22.2324 6.61 22.4367 6.61C22.6409 6.61 22.8067 6.77573 22.8067 6.98V7.35H23.1767C23.3809 7.35 23.5467 7.51573 23.5467 7.72C23.5467 7.92427 23.3809 8.09 23.1767 8.09H22.8067V8.46C22.8067 8.66427 22.6409 8.83 22.4367 8.83C22.2324 8.83 22.0667 8.66427 22.0667 8.46V8.09H21.6967C21.4924 8.09 21.3267 7.92427 21.3267 7.72C21.3267 7.51573 21.4924 7.35 21.6967 7.35ZM18.3667 8.46C18.3667 7.71181 18.9751 7.10333 19.7233 7.10333C20.4715 7.10333 21.08 7.71181 21.08 8.46V9.94C21.08 10.1443 20.9143 10.31 20.71 10.31C20.5057 10.31 20.34 10.1443 20.34 9.94V9.32333H19.1067V9.94C19.1067 10.1443 18.9409 10.31 18.7367 10.31C18.5324 10.31 18.3667 10.1443 18.3667 9.94V8.46ZM17.1333 8.46C17.1333 8.66427 16.9676 8.83 16.7633 8.83H12.3233C12.1191 8.83 11.9533 8.66427 11.9533 8.46C11.9533 8.25573 12.1191 8.09 12.3233 8.09H16.7633C16.9676 8.09 17.1333 8.25573 17.1333 8.46ZM16.1467 6.98C16.1467 7.18427 15.9809 7.35 15.7767 7.35H12.3233C12.1191 7.35 11.9533 7.18427 11.9533 6.98C11.9533 6.77573 12.1191 6.61 12.3233 6.61H15.7767C15.9809 6.61 16.1467 6.77573 16.1467 6.98Z" fill="#EAE7FF"/>
<path d="M20.34 8.45999C20.34 8.11986 20.0635 7.84332 19.7233 7.84332C19.3832 7.84332 19.1067 8.11986 19.1067 8.45999V8.58332H20.34V8.45999Z" fill="#EAE7FF"/>
</svg>
