<svg width="36" height="28" viewBox="0 0 36 28" fill="none" xmlns="http://www.w3.org/2000/svg">
<rect width="36" height="28" rx="3" fill="#002EA4"/>
<path d="M21.1553 5.60927H16.6165C16.4757 5.60927 16.359 5.726 16.359 5.86676C16.359 6.00752 16.4757 6.12425 16.6165 6.12425H21.1553C21.296 6.12425 21.4127 6.00752 21.4127 5.86676C21.4127 5.726 21.296 5.60927 21.1553 5.60927Z" fill="#C8D7FF"/>
<path d="M21.1553 7.44261H16.9358C16.795 7.44261 16.6783 7.55934 16.6783 7.7001C16.6783 7.84087 16.795 7.9576 16.9358 7.9576H21.1553C21.296 7.9576 21.4128 7.84087 21.4128 7.7001C21.4128 7.55934 21.296 7.44261 21.1553 7.44261Z" fill="#C8D7FF"/>
<path d="M21.1553 9.27597H16.6165C16.4757 9.27597 16.359 9.3927 16.359 9.53346C16.359 9.67423 16.4757 9.79096 16.6165 9.79096H21.1553C21.296 9.79096 21.4127 9.67423 21.4127 9.53346C21.4127 9.3927 21.296 9.27597 21.1553 9.27597Z" fill="#C8D7FF"/>
<path d="M14.2235 15.9364H12.4451C12.3044 15.9364 12.1876 16.0532 12.1876 16.1939V21.876C12.1876 22.0167 12.3044 22.1334 12.4451 22.1334H14.2235C14.3643 22.1334 14.481 22.0167 14.481 21.876V16.1939C14.481 16.0532 14.3677 15.9364 14.2235 15.9364Z" fill="#C8D7FF"/>
<path d="M17.516 16.9115H15.6964C15.5556 16.9115 15.4389 17.0282 15.4389 17.169V21.8794C15.4389 22.0202 15.5556 22.1369 15.6964 22.1369H17.516C17.6568 22.1369 17.7735 22.0202 17.7735 21.8794V17.169C17.7735 17.0248 17.6568 16.9115 17.516 16.9115Z" fill="#C8D7FF"/>
<path d="M20.6986 12.6234H18.9202C18.7795 12.6234 18.6627 12.7401 18.6627 12.8809V21.876C18.6627 22.0167 18.7795 22.1335 18.9202 22.1335H20.6986C20.8394 22.1335 20.9561 22.0167 20.9561 21.876V12.8809C20.9561 12.7401 20.8428 12.6234 20.6986 12.6234Z" fill="#C8D7FF"/>
<path d="M10.986 18.4633H9.20757C9.06681 18.4633 8.95008 18.58 8.95008 18.7208V21.876C8.95008 22.0167 9.06681 22.1335 9.20757 22.1335H10.986C11.1268 22.1335 11.2435 22.0167 11.2435 21.876V18.7208C11.2435 18.5766 11.1268 18.4633 10.986 18.4633Z" fill="#C8D7FF"/>
<path d="M8.75095 12.7538H17.1967C17.3375 12.7538 17.4542 12.6371 17.4542 12.4963C17.4542 12.3556 17.3375 12.2388 17.1967 12.2388H8.75095C8.61019 12.2388 8.49346 12.3556 8.49346 12.4963C8.49346 12.6371 8.61019 12.7538 8.75095 12.7538Z" fill="#C8D7FF"/>
<path d="M17.4542 14.1649C17.4542 14.0241 17.3375 13.9074 17.1967 13.9074H8.75095C8.61019 13.9074 8.49346 14.0241 8.49346 14.1649C8.49346 14.3057 8.61019 14.4224 8.75095 14.4224H17.1967C17.3409 14.4224 17.4542 14.3057 17.4542 14.1649Z" fill="#C8D7FF"/>
<path d="M25.2923 17.629C24.3756 17.629 23.5414 17.9758 22.9062 18.5423V4.02311C22.9062 3.46005 22.4462 3 21.8831 3H8.02311C7.46005 3 7 3.46005 7 4.02311V22.9471C7 23.5102 7.46005 23.9702 8.02311 23.9702H21.8831C22.1749 23.9702 22.4427 23.8466 22.6316 23.6338C23.2907 24.3582 24.2383 24.8183 25.2923 24.8183C27.2733 24.8183 28.8835 23.2081 28.8835 21.2271C28.8835 19.2427 27.2733 17.629 25.2923 17.629ZM22.3054 23.2218C22.2127 23.366 22.0548 23.4518 21.8831 23.4518H8.02311C7.74501 23.4518 7.51499 23.2252 7.51499 22.9437V4.02311C7.51499 3.74501 7.74158 3.51499 8.02311 3.51499H21.8831C22.1612 3.51499 22.3912 3.74158 22.3912 4.02311V19.0332C22.3912 19.0573 22.3981 19.0779 22.405 19.0985C21.9655 19.6959 21.7011 20.4306 21.7011 21.2271C21.6977 21.9618 21.9209 22.6484 22.3054 23.2218ZM23.3148 20.2795C23.1843 19.8435 23.4315 19.38 23.8675 19.253C24.0804 19.1912 24.3035 19.2118 24.4992 19.3182C24.6915 19.4246 24.8357 19.5963 24.8975 19.8092C25.028 20.2452 24.7773 20.7087 24.3413 20.8391C24.2623 20.8632 24.1834 20.8735 24.1078 20.8735C23.7508 20.87 23.4212 20.6366 23.3148 20.2795ZM24.5748 22.9986C24.5267 23.081 24.4409 23.1257 24.3516 23.1257C24.307 23.1257 24.2623 23.1154 24.2211 23.0913C24.0975 23.0192 24.0563 22.8613 24.1284 22.7377L26.1815 19.2221C26.2536 19.0985 26.4116 19.0573 26.5351 19.1294C26.6587 19.2015 26.6999 19.3594 26.6278 19.483L24.5748 22.9986ZM26.7308 23.3179C26.6519 23.342 26.5729 23.3523 26.4974 23.3523C26.1438 23.3523 25.8142 23.1188 25.7077 22.7617C25.5773 22.3257 25.8245 21.8622 26.2605 21.7352C26.4733 21.6734 26.6965 21.694 26.8922 21.8004C27.0845 21.9069 27.2287 22.0785 27.2905 22.2914C27.4175 22.7274 27.1669 23.1909 26.7308 23.3179Z" fill="#C8D7FF"/>
<path d="M11.7104 10.9205C13.4854 10.9205 14.9308 9.4751 14.9308 7.70012C14.9308 5.92856 13.4854 4.48317 11.7104 4.48317C9.93886 4.48317 8.49346 5.92513 8.49346 7.70012C8.49346 9.4751 9.93542 10.9205 11.7104 10.9205ZM11.7104 7.95761C11.1783 7.95761 10.7457 7.52502 10.7457 6.98944C10.7457 6.54655 11.0478 6.17576 11.4529 6.06246V5.9732C11.4529 5.83243 11.5696 5.7157 11.7104 5.7157C11.8512 5.7157 11.9679 5.83243 11.9679 5.9732V6.06246C12.3765 6.17576 12.6786 6.54655 12.6786 6.98944C12.6786 7.1302 12.5619 7.24693 12.4211 7.24693C12.2803 7.24693 12.1636 7.1302 12.1636 6.98944C12.1636 6.73881 11.961 6.53968 11.7104 6.53968C11.4598 6.53968 11.2607 6.74224 11.2607 6.98944C11.2607 7.23663 11.4632 7.44262 11.7104 7.44262C12.2426 7.44262 12.6786 7.87521 12.6786 8.40737C12.6786 8.85025 12.3765 9.22104 11.9679 9.33434V9.43047C11.9679 9.57123 11.8512 9.68796 11.7104 9.68796C11.5696 9.68796 11.4529 9.57123 11.4529 9.43047V9.33434C11.0444 9.22104 10.7457 8.85025 10.7457 8.40737C10.7457 8.2666 10.8624 8.14987 11.0032 8.14987C11.1439 8.14987 11.2607 8.2666 11.2607 8.40737C11.2607 8.65799 11.4632 8.86055 11.7104 8.86055C11.9576 8.86055 12.1636 8.65799 12.1636 8.40737C12.1636 8.15674 11.961 7.95761 11.7104 7.95761Z" fill="#C8D7FF"/>
</svg>
