<svg width="35" height="28" viewBox="0 0 35 28" fill="none" xmlns="http://www.w3.org/2000/svg">
<path d="M0 3C0 1.34315 1.34315 0 3 0H32C33.6569 0 35 1.34315 35 3V25C35 26.6569 33.6569 28 32 28H3C1.34315 28 0 26.6569 0 25V3Z" fill="#FEB805"/>
<path d="M20.9388 5.11122C23.0794 6.12261 24.7876 7.86651 25.7545 10.0276C26.7214 12.1888 26.8832 14.6245 26.2107 16.8946C25.5381 19.1646 24.0756 21.1191 22.0874 22.4048C20.0993 23.6904 17.7169 24.2223 15.3707 23.9044L15.6629 21.7488C17.4944 21.997 19.3542 21.5818 20.9062 20.5781C22.4582 19.5745 23.6 18.0487 24.125 16.2766C24.65 14.5046 24.5237 12.6031 23.7689 10.916C23.0141 9.22893 21.6806 7.86757 20.0095 7.07803L20.9388 5.11122Z" fill="#FBEECC"/>
<path d="M12.4663 23.0439C10.3256 22.0325 8.61743 20.2886 7.65053 18.1274C6.68363 15.9663 6.52184 13.5305 7.1944 11.2605C7.86697 8.99046 9.32951 7.03595 11.3176 5.75032C13.3057 4.46468 15.6882 3.93276 18.0343 4.25072L17.7422 6.4063C15.9107 6.15808 14.0508 6.57332 12.4988 7.57694C10.9468 8.58057 9.8051 10.1063 9.28007 11.8784C8.75503 13.6505 8.88134 15.552 9.63614 17.2391C10.3909 18.9262 11.7244 20.2875 13.3955 21.0771L12.4663 23.0439Z" fill="#FBEECC"/>
<path d="M13.7859 16.6117L16 8H20L17.5 14.5079H20.7859L13 25L16 16.6117H13.7859Z" fill="white"/>
</svg>
