<svg width="35" height="28" viewBox="0 0 35 28" fill="none" xmlns="http://www.w3.org/2000/svg">
<rect width="35" height="28" rx="3" fill="#2AD100"/>
<path d="M9.8637 6.7942C11.5907 6.89849 15.4802 7.64519 17.2222 9.79768" stroke="#BDFFAC"/>
<path d="M24.5807 6.7942C22.8537 6.89849 18.9642 7.64519 17.2222 9.79768" stroke="#BDFFAC"/>
<path d="M11.6926 11.5329C12.6175 11.7628 14.6525 12.5317 15.3933 13.769" stroke="#BDFFAC"/>
<path d="M11.7111 13.7554C12.6322 14.0003 14.6543 14.8025 15.3748 16.0517" stroke="#BDFFAC"/>
<path d="M11.6692 16.0778C12.5988 16.2879 14.6497 17.0133 15.4167 18.2345" stroke="#BDFFAC"/>
<path d="M11.6422 9.36836C12.5768 9.55455 14.6457 10.2272 15.4437 11.4284" stroke="#BDFFAC"/>
<path d="M23.0522 11.5329C22.1273 11.7628 20.0923 12.5317 19.3514 13.769" stroke="#BDFFAC"/>
<path d="M23.0337 13.7554C22.1126 14.0003 20.0905 14.8025 19.37 16.0517" stroke="#BDFFAC"/>
<path d="M23.0756 16.0778C22.146 16.2879 20.0951 17.0133 19.328 18.2345" stroke="#BDFFAC"/>
<path d="M23.1026 9.36836C22.1679 9.55455 20.0991 10.2272 19.301 11.4284" stroke="#BDFFAC"/>
<path d="M9.8637 19.8593C11.5907 19.9636 15.4802 20.7103 17.2222 22.8628" stroke="#BDFFAC"/>
<path d="M24.5807 19.8593C22.8537 19.9636 18.9642 20.7103 17.2222 22.8628" stroke="#BDFFAC"/>
<path d="M9.8637 6.7942V19.8593" stroke="#BDFFAC"/>
<path d="M24.5807 6.7942V19.8593" stroke="#BDFFAC"/>
<path d="M17.2222 9.64749V22.7126" stroke="#BDFFAC"/>
<path d="M9.8637 7.77033H7.6111V20.6853L17.2222 22.8628V9.87276" stroke="#BDFFAC"/>
<path d="M24.5807 7.77033H26.8333V20.6853L17.2222 22.8628V9.87276" stroke="#BDFFAC"/>
</svg>
