<svg width="35" height="28" viewBox="0 0 35 28" fill="none" xmlns="http://www.w3.org/2000/svg">
<path fill-rule="evenodd" clip-rule="evenodd" d="M31.5 0H3.5C1.575 0 0 1.4 0 3.11111V24.8889C0 26.6 1.575 28 3.5 28H31.5C33.425 28 35 26.6 35 24.8889V3.11111C35 1.4 33.425 0 31.5 0ZM12.25 21.7778H7C6.0375 21.7778 5.25 21.0778 5.25 20.2222C5.25 19.3667 6.0375 18.6667 7 18.6667H12.25C13.2125 18.6667 14 19.3667 14 20.2222C14 21.0778 13.2125 21.7778 12.25 21.7778ZM12.25 15.5556H7C6.0375 15.5556 5.25 14.8556 5.25 14C5.25 13.1444 6.0375 12.4444 7 12.4444H12.25C13.2125 12.4444 14 13.1444 14 14C14 14.8556 13.2125 15.5556 12.25 15.5556ZM22.75 9.33333H7C6.0375 9.33333 5.25 8.63333 5.25 7.77778C5.25 6.92222 6.0375 6.22222 7 6.22222H22.75C23.7125 6.22222 24.5 6.92222 24.5 7.77778C24.5 8.63333 23.7125 9.33333 22.75 9.33333Z" fill="#FF0000"/>
<path d="M17.9058 22.75H15.599L19.1139 12.5682H21.888L25.398 22.75H23.0911L20.5407 14.8949H20.4612L17.9058 22.75ZM17.7616 18.7479H23.2105V20.4283H17.7616V18.7479ZM27.0864 21.1989V14.1591H28.8662V21.1989H27.0864ZM24.4564 18.5689V16.7891H31.4962V18.5689H24.4564Z" fill="white" fill-opacity="0.76"/>
</svg>
