<svg width="35" height="28" viewBox="0 0 35 28" fill="none" xmlns="http://www.w3.org/2000/svg">
<rect width="35" height="28" rx="3" fill="#01BF9D"/>
<path d="M17.9775 9.05045H30.6841C31.4606 9.05045 32.096 8.37167 32.096 7.54205C32.096 6.71242 31.4606 6.03364 30.6841 6.03364H17.9775C17.201 6.03364 16.5657 6.71242 16.5657 7.54205C16.5657 8.37167 17.201 9.05045 17.9775 9.05045Z" fill="#A9FFF0"/>
<path d="M20.8012 15.0841H30.9665C31.5877 15.0841 32.096 14.4053 32.096 13.5757C32.096 12.7461 31.5877 12.0673 30.9665 12.0673H20.8012C20.18 12.0673 19.6717 12.7461 19.6717 13.5757C19.6717 14.4053 20.18 15.0841 20.8012 15.0841Z" fill="#A9FFF0"/>
<path d="M24.5661 21.1177H31.343C31.7571 21.1177 32.096 20.4389 32.096 19.6093C32.096 18.7797 31.7571 18.1009 31.343 18.1009H24.5661C24.152 18.1009 23.8131 18.7797 23.8131 19.6093C23.8131 20.4389 24.152 21.1177 24.5661 21.1177Z" fill="#A9FFF0"/>
<path d="M17.7593 21.0752C17.7593 19.2386 17.0081 17.4773 15.671 16.1787C14.334 14.88 12.5205 14.1504 10.6296 14.1504C8.73874 14.1504 6.92529 14.88 5.58822 16.1787C4.25116 17.4773 3.5 19.2386 3.5 21.0752L5.5292 21.0752C5.5292 19.7614 6.06657 18.5013 7.02309 17.5723C7.9796 16.6433 9.27692 16.1213 10.6296 16.1213C11.9824 16.1213 13.2797 16.6433 14.2362 17.5723C15.1927 18.5013 15.7301 19.7614 15.7301 21.0752H17.7593Z" fill="#A9FFF0"/>
<path d="M14.5185 9.11422C14.5185 11.2003 12.7774 12.8914 10.6296 12.8914C8.48186 12.8914 6.74074 11.2003 6.74074 9.11422C6.74074 7.02816 8.48186 5.33707 10.6296 5.33707C12.7774 5.33707 14.5185 7.02816 14.5185 9.11422Z" fill="#A9FFF0"/>
</svg>
