<svg width="20" height="22" viewBox="0 0 20 22" fill="none" xmlns="http://www.w3.org/2000/svg">
<g id="Group 252">
<rect id="Rectangle 77" y="2" width="20" height="20" rx="4" fill="#D9D9D9"/>
<g id="Group 244">
<circle id="Ellipse 49" cx="5.67857" cy="4.32139" r="1.17857" fill="#EE0000"/>
<circle id="Ellipse 50" cx="14.3214" cy="4.32139" r="1.17857" fill="#EE0000"/>
</g>
<line id="Line 51" y1="7.5" x2="20" y2="7.5" stroke="black"/>
<line id="Line 52" x1="5.5" y1="4" x2="5.5" y2="2.18557e-08" stroke="#EE0000"/>
<line id="Line 53" x1="14.5" y1="4" x2="14.5" y2="2.18557e-08" stroke="#EE0000"/>
<g id="Group 245">
<rect id="Rectangle 78" x="3.71429" y="10.2143" width="1.57143" height="1.57143" stroke="black"/>
<rect id="Rectangle 81" x="3.71429" y="14.1429" width="1.57143" height="1.57143" stroke="black"/>
<rect id="Rectangle 84" x="3.71429" y="18.0714" width="1.57143" height="1.57143" stroke="black"/>
<rect id="Rectangle 79" x="9.21429" y="10.2143" width="1.57143" height="1.57143" stroke="black"/>
<rect id="Rectangle 82" x="9.21429" y="14.1429" width="1.57143" height="1.57143" stroke="black"/>
<rect id="Rectangle 85" x="9.21429" y="18.0714" width="1.57143" height="1.57143" stroke="black"/>
<rect id="Rectangle 80" x="14.7143" y="10.2143" width="1.57143" height="1.57143" stroke="black"/>
<rect id="Rectangle 83" x="14.7143" y="14.1429" width="1.57143" height="1.57143" stroke="black"/>
<rect id="Rectangle 86" x="14.7143" y="18.0714" width="1.57143" height="1.57143" stroke="black"/>
</g>
</g>
</svg>
