<svg width="40" height="40" viewBox="0 0 40 40" fill="none" xmlns="http://www.w3.org/2000/svg">
<g clip-path="url(#clip0_566_8)">
<path d="M21.3333 27.3333H25.3333V21.3333H31.3333V17.3333H25.3333V11.3333H21.3333V17.3333H15.3333V21.3333H21.3333V27.3333ZM3.33331 43.3333V7.33334C3.33331 6.23334 3.72531 5.29201 4.50931 4.50934C5.29331 3.72668 6.23465 3.33468 7.33331 3.33334H39.3333C40.4333 3.33334 41.3753 3.72534 42.1593 4.50934C42.9433 5.29334 43.3346 6.23468 43.3333 7.33334V31.3333C43.3333 32.4333 42.942 33.3753 42.1593 34.1593C41.3766 34.9433 40.4346 35.3347 39.3333 35.3333H11.3333L3.33331 43.3333Z" fill="#A21F4E"/>
</g>
<defs>
<clipPath id="clip0_566_8">
<rect width="40" height="40" fill="white"/>
</clipPath>
</defs>
</svg>
