<svg width="39" height="41" viewBox="0 0 39 41" fill="none" xmlns="http://www.w3.org/2000/svg">
<path fill-rule="evenodd" clip-rule="evenodd" d="M35.5 0H7.5C5.575 0 4 1.4 4 3.11111V24.8889C4 26.6 5.575 28 7.5 28H35.5C37.425 28 39 26.6 39 24.8889V3.11111C39 1.4 37.425 0 35.5 0Z" fill="#9B8CFE"/>
<path d="M8.83245 35.833C8.18689 36.3904 7.18475 35.9357 7.17899 35.0828L7.09396 22.4966C7.08903 21.7667 7.84242 21.2777 8.50711 21.5792L18.1194 25.9404C18.7841 26.242 18.9122 27.131 18.3597 27.608L8.83245 35.833Z" fill="#9B8CFE"/>
<path d="M17 8H32" stroke="#D6D0FF" stroke-width="3" stroke-linecap="round"/>
<path d="M17 14H32" stroke="#D6D0FF" stroke-width="3" stroke-linecap="round"/>
<path d="M17 20H32" stroke="#D6D0FF" stroke-width="3" stroke-linecap="round"/>
</svg>
