<svg width="35" height="31" viewBox="0 0 35 31" fill="none" xmlns="http://www.w3.org/2000/svg">
<path d="M24.7917 25.8333C25.059 25.8333 25.2839 25.7526 25.4661 25.5911C25.6484 25.4297 25.7396 25.2306 25.7396 24.9938C25.7396 24.7569 25.6484 24.5578 25.4661 24.3964C25.2839 24.2349 25.059 24.1542 24.7917 24.1542C24.5243 24.1542 24.2995 24.2349 24.1172 24.3964C23.9349 24.5578 23.8438 24.7569 23.8438 24.9938C23.8438 25.2306 23.9349 25.4297 24.1172 25.5911C24.2995 25.7526 24.5243 25.8333 24.7917 25.8333ZM24.7917 18.0833C24.3299 18.0833 23.9045 18.1856 23.5156 18.3901C23.1267 18.5946 22.8108 18.8691 22.5677 19.2135C22.4705 19.3427 22.4583 19.4773 22.5313 19.6172C22.6042 19.7571 22.7257 19.8594 22.8958 19.924C23.0417 19.9885 23.1875 19.9885 23.3333 19.924C23.4792 19.8594 23.6128 19.7733 23.7344 19.6656C23.8559 19.5149 24.0078 19.3965 24.1901 19.3104C24.3724 19.2243 24.5729 19.1813 24.7917 19.1813C25.1076 19.1813 25.3811 19.2727 25.612 19.4557C25.8429 19.6387 25.9583 19.8701 25.9583 20.15C25.9583 20.3868 25.8854 20.5859 25.7396 20.7474C25.5938 20.9089 25.4236 21.0757 25.2292 21.2479C25.0833 21.3771 24.9314 21.5063 24.7734 21.6354C24.6155 21.7646 24.4757 21.9153 24.3542 22.0875C24.2813 22.2167 24.2266 22.3512 24.1901 22.4911C24.1536 22.6311 24.1354 22.7764 24.1354 22.9271C24.1354 23.1208 24.1962 23.2984 24.3177 23.4599C24.4392 23.6214 24.5972 23.7021 24.7917 23.7021C24.9861 23.7021 25.1441 23.6375 25.2656 23.5083C25.3872 23.3792 25.4479 23.2285 25.4479 23.0563C25.4479 22.8194 25.5208 22.6096 25.6667 22.4266C25.8125 22.2436 25.9826 22.066 26.1771 21.8938C26.4688 21.6569 26.724 21.3932 26.9427 21.1026C27.1615 20.812 27.2708 20.4944 27.2708 20.15C27.2708 19.5688 27.0278 19.079 26.5417 18.6807C26.0556 18.2825 25.4722 18.0833 24.7917 18.0833ZM24.7917 28.4167C22.7743 28.4167 21.0547 27.787 19.6328 26.5276C18.2109 25.2682 17.5 23.7451 17.5 21.9583C17.5 20.1715 18.2109 18.6484 19.6328 17.3891C21.0547 16.1297 22.7743 15.5 24.7917 15.5C26.809 15.5 28.5286 16.1297 29.9505 17.3891C31.3724 18.6484 32.0833 20.1715 32.0833 21.9583C32.0833 23.7451 31.3724 25.2682 29.9505 26.5276C28.5286 27.787 26.809 28.4167 24.7917 28.4167ZM18.9583 11.625H24.7917L17.5 5.16667V10.3333C17.5 10.6993 17.6398 11.0061 17.9193 11.2536C18.1988 11.5012 18.5451 11.625 18.9583 11.625ZM7.29167 28.4167C6.48958 28.4167 5.80295 28.1637 5.23177 27.6578C4.66059 27.1519 4.375 26.5438 4.375 25.8333V5.16667C4.375 4.45625 4.66059 3.84809 5.23177 3.34219C5.80295 2.83629 6.48958 2.58334 7.29167 2.58334H17.7552C18.1441 2.58334 18.5148 2.64792 18.8672 2.77709C19.2196 2.90625 19.5295 3.08924 19.7969 3.32604L26.8698 9.59063C27.1372 9.82743 27.3438 10.1019 27.4896 10.4141C27.6354 10.7262 27.7083 11.0545 27.7083 11.399V13.3042C27.2222 13.175 26.7361 13.0781 26.25 13.0135C25.7639 12.949 25.2778 12.9167 24.7917 12.9167C23.4063 12.9167 22.0998 13.1481 20.8724 13.6109C19.645 14.0738 18.5694 14.7035 17.6458 15.5H11.6667C11.2535 15.5 10.9071 15.6238 10.6276 15.8714C10.3481 16.1189 10.2083 16.4257 10.2083 16.7917C10.2083 17.1576 10.3481 17.4644 10.6276 17.712C10.9071 17.9596 11.2535 18.0833 11.6667 18.0833H15.5677C15.349 18.4924 15.1667 18.9122 15.0208 19.3427C14.875 19.7733 14.7656 20.2146 14.6927 20.6667H11.6667C11.2535 20.6667 10.9071 20.7905 10.6276 21.038C10.3481 21.2856 10.2083 21.5924 10.2083 21.9583C10.2083 22.3243 10.3481 22.6311 10.6276 22.8786C10.9071 23.1262 11.2535 23.25 11.6667 23.25H14.6927C14.8628 24.2188 15.2031 25.1498 15.7135 26.0432C16.224 26.9366 16.8802 27.7278 17.6823 28.4167H7.29167Z" fill="#EB3223"/>
</svg>
