<svg width="37" height="28" viewBox="0 0 37 28" fill="none" xmlns="http://www.w3.org/2000/svg">
<rect width="36.0354" height="28" rx="3" fill="#FF10CA"/>
<path d="M17.461 8.79041H29.8025C30.5567 8.79041 31.1738 8.13113 31.1738 7.32534C31.1738 6.51956 30.5567 5.86028 29.8025 5.86028H17.461C16.7068 5.86028 16.0897 6.51956 16.0897 7.32534C16.0897 8.13113 16.7068 8.79041 17.461 8.79041Z" fill="#FFE6F9"/>
<path d="M20.2035 14.6507H30.0767C30.6801 14.6507 31.1738 13.9914 31.1738 13.1856C31.1738 12.3798 30.6801 11.7206 30.0767 11.7206H20.2035C19.6002 11.7206 19.1065 12.3798 19.1065 13.1856C19.1065 13.9914 19.6002 14.6507 20.2035 14.6507Z" fill="#FFE6F9"/>
<path d="M23.8603 20.5109H30.4424C30.8447 20.5109 31.1738 19.8517 31.1738 19.0459C31.1738 18.2401 30.8447 17.5808 30.4424 17.5808H23.8603C23.458 17.5808 23.1289 18.2401 23.1289 19.0459C23.1289 19.8517 23.458 20.5109 23.8603 20.5109Z" fill="#FFE6F9"/>
<path d="M17.249 20.4697C17.249 18.6859 16.5194 16.9751 15.2208 15.7138C13.9221 14.4525 12.1608 13.7439 10.3242 13.7439C8.48765 13.7439 6.72631 14.4525 5.42766 15.7138C4.12901 16.9751 3.39944 18.6859 3.39944 20.4697H5.37034C5.37034 19.1936 5.89226 17.9697 6.8213 17.0674C7.75033 16.1651 9.01037 15.6581 10.3242 15.6581C11.6381 15.6581 12.8981 16.1651 13.8271 17.0674C14.7562 17.9697 15.2781 19.1936 15.2781 20.4697H17.249Z" fill="#FFE6F9"/>
<path d="M14.1014 8.85234C14.1014 10.8785 12.4103 12.521 10.3242 12.521C8.23816 12.521 6.54707 10.8785 6.54707 8.85234C6.54707 6.82622 8.23816 5.18372 10.3242 5.18372C12.4103 5.18372 14.1014 6.82622 14.1014 8.85234Z" fill="#FFE6F9"/>
</svg>
