<svg width="35" height="28" viewBox="0 0 35 28" fill="none" xmlns="http://www.w3.org/2000/svg">
<rect width="35" height="28" rx="3" fill="#39B6FD"/>
<path d="M17.9556 9.33334H30.6467C31.4223 9.33334 32.0568 8.63334 32.0568 7.77778C32.0568 6.92223 31.4223 6.22223 30.6467 6.22223H17.9556C17.18 6.22223 16.5455 6.92223 16.5455 7.77778C16.5455 8.63334 17.18 9.33334 17.9556 9.33334Z" fill="#C1E9FF"/>
<path d="M20.7758 15.5556H30.9287C31.5492 15.5556 32.0568 14.8556 32.0568 14C32.0568 13.1445 31.5492 12.4445 30.9287 12.4445H20.7758C20.1554 12.4445 19.6477 13.1445 19.6477 14C19.6477 14.8556 20.1554 15.5556 20.7758 15.5556Z" fill="#C1E9FF"/>
<path d="M24.5361 21.7778H31.3047C31.7184 21.7778 32.0568 21.0778 32.0568 20.2222C32.0568 19.3667 31.7184 18.6667 31.3047 18.6667H24.5361C24.1225 18.6667 23.7841 19.3667 23.7841 20.2222C23.7841 21.0778 24.1225 21.7778 24.5361 21.7778Z" fill="#C1E9FF"/>
<path d="M17.4975 21.1556C17.4975 19.3403 16.7575 17.5994 15.4401 16.3158C14.1227 15.0322 12.336 14.3111 10.473 14.3111C8.60995 14.3111 6.82323 15.0322 5.50587 16.3158C4.1885 17.5994 3.44842 19.3403 3.44842 21.1556L5.69754 21.1556C5.69754 19.9215 6.20066 18.738 7.09623 17.8654C7.9918 16.9928 9.20645 16.5026 10.473 16.5026C11.7395 16.5026 12.9542 16.9928 13.8497 17.8654C14.7453 18.738 15.2484 19.9215 15.2484 21.1556H17.4975Z" fill="#C1E9FF"/>
<path d="M13.5546 9.33334C13.5546 10.9627 12.1934 12.3167 10.473 12.3167C8.75259 12.3167 7.3914 10.9627 7.3914 9.33334C7.3914 7.70394 8.75259 6.35001 10.473 6.35001C12.1934 6.35001 13.5546 7.70394 13.5546 9.33334Z" stroke="#C1E9FF" stroke-width="1.5"/>
</svg>
