<svg width="35" height="28" viewBox="0 0 35 28" fill="none" xmlns="http://www.w3.org/2000/svg">
<rect width="35" height="28" rx="3" fill="#02A5D9"/>
<circle cx="17" cy="14" r="7.75" fill="white" stroke="black" stroke-width="0.5"/>
<circle cx="17" cy="14" r="5.75" fill="white" stroke="white" stroke-width="0.5"/>
<mask id="path-4-inside-1_117_4" fill="white">
<path d="M27 14C27 11.8714 26.3208 9.79832 25.0612 8.08242C23.8015 6.36652 22.0272 5.09732 19.9964 4.45949C17.9656 3.82167 15.7843 3.8485 13.7698 4.53608C11.7553 5.22366 10.0128 6.53611 8.79574 8.28247C7.5787 10.0288 6.95067 12.118 7.00303 14.246C7.05538 16.3739 7.78539 18.4297 9.08683 20.1141C10.3883 21.7985 12.1932 23.0236 14.2391 23.6113C16.285 24.199 18.465 24.1185 20.462 23.3816L18.3875 17.7599C17.5871 18.0552 16.7134 18.0874 15.8935 17.8519C15.0736 17.6164 14.3502 17.1254 13.8286 16.4503C13.3071 15.7753 13.0145 14.9514 12.9935 14.0986C12.9725 13.2457 13.2242 12.4085 13.712 11.7086C14.1997 11.0087 14.8981 10.4827 15.7054 10.2072C16.5128 9.93159 17.387 9.92084 18.2009 10.1765C19.0148 10.4321 19.7258 10.9407 20.2307 11.6284C20.7355 12.3161 21.0077 13.1469 21.0077 14H27Z"/>
</mask>
<path d="M27 14C27 11.8714 26.3208 9.79832 25.0612 8.08242C23.8015 6.36652 22.0272 5.09732 19.9964 4.45949C17.9656 3.82167 15.7843 3.8485 13.7698 4.53608C11.7553 5.22366 10.0128 6.53611 8.79574 8.28247C7.5787 10.0288 6.95067 12.118 7.00303 14.246C7.05538 16.3739 7.78539 18.4297 9.08683 20.1141C10.3883 21.7985 12.1932 23.0236 14.2391 23.6113C16.285 24.199 18.465 24.1185 20.462 23.3816L18.3875 17.7599C17.5871 18.0552 16.7134 18.0874 15.8935 17.8519C15.0736 17.6164 14.3502 17.1254 13.8286 16.4503C13.3071 15.7753 13.0145 14.9514 12.9935 14.0986C12.9725 13.2457 13.2242 12.4085 13.712 11.7086C14.1997 11.0087 14.8981 10.4827 15.7054 10.2072C16.5128 9.93159 17.387 9.92084 18.2009 10.1765C19.0148 10.4321 19.7258 10.9407 20.2307 11.6284C20.7355 12.3161 21.0077 13.1469 21.0077 14H27Z" fill="#46D639" fill-opacity="0.55" stroke="white" mask="url(#path-4-inside-1_117_4)"/>
<mask id="path-5-inside-2_117_4" fill="white">
<path d="M27 14C27 12.5852 26.6998 11.1865 26.1192 9.89626C25.5386 8.60606 24.6908 7.45375 23.6319 6.51546C22.5729 5.57717 21.327 4.87426 19.9763 4.45317C18.6256 4.03209 17.2009 3.90241 15.7963 4.07271C14.3918 4.243 13.0394 4.7094 11.8285 5.44108C10.6175 6.17276 9.57563 7.15307 8.77162 8.31724C7.96761 9.48141 7.41979 10.8029 7.16434 12.1945C6.9089 13.5861 6.95164 15.016 7.28976 16.3898L12.8528 15.0207C12.7084 14.4339 12.6901 13.8232 12.7992 13.2289C12.9083 12.6346 13.1423 12.0701 13.4857 11.5729C13.8291 11.0757 14.2741 10.657 14.7913 10.3445C15.3084 10.032 15.8861 9.83284 16.4859 9.76011C17.0858 9.68737 17.6943 9.74276 18.2711 9.9226C18.848 10.1024 19.3802 10.4027 19.8324 10.8034C20.2847 11.2041 20.6468 11.6963 20.8947 12.2473C21.1427 12.7984 21.2709 13.3957 21.2709 14H27Z"/>
</mask>
<path d="M27 14C27 12.5852 26.6998 11.1865 26.1192 9.89626C25.5386 8.60606 24.6908 7.45375 23.6319 6.51546C22.5729 5.57717 21.327 4.87426 19.9763 4.45317C18.6256 4.03209 17.2009 3.90241 15.7963 4.07271C14.3918 4.243 13.0394 4.7094 11.8285 5.44108C10.6175 6.17276 9.57563 7.15307 8.77162 8.31724C7.96761 9.48141 7.41979 10.8029 7.16434 12.1945C6.9089 13.5861 6.95164 15.016 7.28976 16.3898L12.8528 15.0207C12.7084 14.4339 12.6901 13.8232 12.7992 13.2289C12.9083 12.6346 13.1423 12.0701 13.4857 11.5729C13.8291 11.0757 14.2741 10.657 14.7913 10.3445C15.3084 10.032 15.8861 9.83284 16.4859 9.76011C17.0858 9.68737 17.6943 9.74276 18.2711 9.9226C18.848 10.1024 19.3802 10.4027 19.8324 10.8034C20.2847 11.2041 20.6468 11.6963 20.8947 12.2473C21.1427 12.7984 21.2709 13.3957 21.2709 14H27Z" fill="#D5CF51" fill-opacity="0.5" stroke="white" mask="url(#path-5-inside-2_117_4)"/>
<mask id="path-6-inside-3_117_4" fill="white">
<path d="M19.7147 23.6245C21.9564 22.9922 23.9071 21.5972 25.2301 19.6802C26.5531 17.7633 27.1655 15.4447 26.9616 13.1245L20.7878 13.6671C20.8653 14.5493 20.6325 15.431 20.1294 16.1598C19.6263 16.8887 18.8846 17.4192 18.0322 17.6596L19.7147 23.6245Z"/>
</mask>
<path d="M19.7147 23.6245C21.9564 22.9922 23.9071 21.5972 25.2301 19.6802C26.5531 17.7633 27.1655 15.4447 26.9616 13.1245L20.7878 13.6671C20.8653 14.5493 20.6325 15.431 20.1294 16.1598C19.6263 16.8887 18.8846 17.4192 18.0322 17.6596L19.7147 23.6245Z" fill="#D10000" fill-opacity="0.15" stroke="white" mask="url(#path-6-inside-3_117_4)"/>
<circle cx="17" cy="14" r="2" fill="#02A5D9"/>
</svg>
