<svg width="35" height="28" viewBox="0 0 35 28" fill="none" xmlns="http://www.w3.org/2000/svg">
<rect width="35" height="28" rx="3" fill="#006DD1"/>
<path d="M17.3513 20.4056C17.357 20.3598 17.3632 20.3141 17.3699 20.2685C17.3798 20.314 17.389 20.3597 17.3975 20.4056H17.3513ZM19.3676 20.4056H19.3214C19.3298 20.3597 19.339 20.314 19.349 20.2685C19.3557 20.3141 19.3619 20.3598 19.3676 20.4056ZM23.3994 15.5091C22.0087 15.5091 20.6708 16.0222 19.6389 16.9436C19.5557 16.8188 19.4687 16.6963 19.378 16.5762C20.4866 15.6026 21.9151 15.0611 23.3994 15.0611C25.0158 15.0611 26.5659 15.7032 27.7089 16.8461C28.6736 17.8108 29.2815 19.0657 29.4476 20.4056H28.9958C28.8323 19.1849 28.2726 18.0435 27.3921 17.1629C26.3331 16.104 24.897 15.5091 23.3994 15.5091ZM18.3594 18.6099C18.2798 18.4523 18.1928 18.2983 18.0985 18.1485C18.1797 18.0054 18.2667 17.8655 18.3594 17.729C18.4522 17.8655 18.5392 18.0054 18.6204 18.1485C18.5261 18.2983 18.439 18.4523 18.3594 18.6099ZM17.3409 16.5762C17.2502 16.6963 17.1632 16.8188 17.08 16.9436C16.0481 16.0222 14.7102 15.5091 13.3194 15.5091C11.8219 15.5091 10.3857 16.104 9.32683 17.1629C8.44628 18.0435 7.8866 19.1849 7.72304 20.4056H7.2713C7.43742 19.0657 8.04531 17.8108 9.01002 16.8461C10.153 15.7032 11.7031 15.0611 13.3194 15.0611C14.8038 15.0611 16.2323 15.6026 17.3409 16.5762ZM16.3028 9.33333C16.3028 10.981 14.9671 12.3167 13.3194 12.3167C11.6718 12.3167 10.3361 10.981 10.3361 9.33333C10.3361 7.68568 11.6718 6.35 13.3194 6.35C14.9671 6.35 16.3028 7.68568 16.3028 9.33333ZM26.3828 9.33333C26.3828 10.981 25.0471 12.3167 23.3994 12.3167C21.7518 12.3167 20.4161 10.981 20.4161 9.33333C20.4161 7.68568 21.7518 6.35 23.3994 6.35C25.0471 6.35 26.3828 7.68568 26.3828 9.33333Z" stroke="#ACD6FC" stroke-width="1.5"/>
</svg>
